HIERARCHY
ROOT Hips
{
	OFFSET 0.000000 83.214638 0.000000
	CHANNELS 6 Xposition Yposition Zposition Xrotation Yrotation Zrotation
	JOINT Pelvis
	{
		OFFSET 0.000000 0.000000 0.000000
		CHANNELS 3 Xrotation Yrotation Zrotation
		JOINT LeftUpLeg
		{
			OFFSET 8.479700 -4.795502 -0.379100
			CHANNELS 3 Xrotation Yrotation Zrotation
			JOINT LeftLeg
			{
				OFFSET 0.024144 -32.555107 0.112900
				CHANNELS 3 Xrotation Yrotation Zrotation
				JOINT LeftFoot
				{
					OFFSET -0.024144 -32.638630 -3.012600
					CHANNELS 3 Xrotation Yrotation Zrotation
					JOINT LeftToeBase
					{
						OFFSET 0.970200 -13.225400 11.864200
						CHANNELS 3 Xrotation Yrotation Zrotation
						End Site
						{
							OFFSET 0.000000 12.319262 0.000000
						}
					}
					JOINT LFootTongue
					{
						OFFSET 1.142400 -1.059800 6.665200
						CHANNELS 3 Xrotation Yrotation Zrotation
						End Site
						{
							OFFSET 0.000000 12.319262 0.000000
						}
					}
				}
				JOINT LeftPantLeg
				{
					OFFSET 0.918482 -16.533964 -2.284700
					CHANNELS 3 Xrotation Yrotation Zrotation
					End Site
					{
						OFFSET 0.350399 24.744368 0.000000
					}
				}
			}
		}
		JOINT RightUpLeg
		{
			OFFSET -8.479700 -4.795502 -0.379100
			CHANNELS 3 Xrotation Yrotation Zrotation
			JOINT RightLeg
			{
				OFFSET -0.023144 -32.555092 0.112900
				CHANNELS 3 Xrotation Yrotation Zrotation
				JOINT RightFoot
				{
					OFFSET 0.023144 -32.638641 -3.012700
					CHANNELS 3 Xrotation Yrotation Zrotation
					JOINT RightToeBase
					{
						OFFSET -0.970200 -13.225400 11.864200
						CHANNELS 3 Xrotation Yrotation Zrotation
						End Site
						{
							OFFSET 0.000000 12.319244 0.000000
						}
					}
					JOINT RFootTongue
					{
						OFFSET -1.142200 -1.059800 6.665200
						CHANNELS 3 Xrotation Yrotation Zrotation
						End Site
						{
							OFFSET 0.000000 12.319243 0.000000
						}
					}
				}
				JOINT RightPantLeg
				{
					OFFSET -0.919482 -16.533978 -2.284800
					CHANNELS 3 Xrotation Yrotation Zrotation
					End Site
					{
						OFFSET -0.350400 24.744419 0.000000
					}
				}
			}
		}
	}
	JOINT Spine
	{
		OFFSET 0.000000 7.722000 1.166200
		CHANNELS 3 Xrotation Yrotation Zrotation
		JOINT Spine1
		{
			OFFSET 0.000000 12.024101 0.248800
			CHANNELS 3 Xrotation Yrotation Zrotation
			JOINT Spine2
			{
				OFFSET 0.000000 11.502998 -0.491200
				CHANNELS 3 Xrotation Yrotation Zrotation
				JOINT Neck
				{
					OFFSET 0.000000 18.430702 -3.123100
					CHANNELS 3 Xrotation Yrotation Zrotation
					JOINT Head
					{
						OFFSET 0.000000 9.051102 1.034000
						CHANNELS 3 Xrotation Yrotation Zrotation
						JOINT HairB
						{
							OFFSET 0.208400 24.786102 24.822300
							CHANNELS 3 Xrotation Yrotation Zrotation
							End Site
							{
								OFFSET 0.000000 32.263779 0.000000
							}
						}
						JOINT HairA
						{
							OFFSET -7.081100 24.428299 23.196600
							CHANNELS 3 Xrotation Yrotation Zrotation
							End Site
							{
								OFFSET 0.000000 32.263779 0.000000
							}
						}
						JOINT Hat
						{
							OFFSET 16.728800 15.048294 -15.439601
							CHANNELS 3 Xrotation Yrotation Zrotation
							End Site
							{
								OFFSET 0.000000 32.263779 0.000000
							}
						}
					}
				}
				JOINT LeftShoulder
				{
					OFFSET 6.197800 13.665199 -4.064700
					CHANNELS 3 Xrotation Yrotation Zrotation
					JOINT LeftArm
					{
						OFFSET 7.778100 -0.187103 -1.709300
						CHANNELS 3 Xrotation Yrotation Zrotation
						JOINT LeftForeArm
						{
							OFFSET 22.049376 0.000000 0.000000
							CHANNELS 3 Xrotation Yrotation Zrotation
							JOINT LeftHand
							{
								OFFSET 23.009392 0.000000 0.000000
								CHANNELS 3 Xrotation Yrotation Zrotation
								JOINT LeftHandThumb1
								{
									OFFSET 3.507191 -2.063065 3.133727
									CHANNELS 3 Xrotation Yrotation Zrotation
									JOINT LeftHandThumb2
									{
										OFFSET 3.101337 -1.790558 1.790558
										CHANNELS 3 Xrotation Yrotation Zrotation
										JOINT LeftHandThumb3
										{
											OFFSET 3.058640 -1.765907 1.765906
											CHANNELS 3 Xrotation Yrotation Zrotation
											End Site
											{
												OFFSET -0.415260 3.926476 -0.049563
											}
										}
									}
								}
								JOINT LeftHandIndex1
								{
									OFFSET 11.334419 -0.901459 3.706815
									CHANNELS 3 Xrotation Yrotation Zrotation
									JOINT LeftHandIndex2
									{
										OFFSET 3.283112 0.000000 0.000000
										CHANNELS 3 Xrotation Yrotation Zrotation
										JOINT LeftHandIndex3
										{
											OFFSET 3.323853 0.000000 0.000000
											CHANNELS 3 Xrotation Yrotation Zrotation
											End Site
											{
												OFFSET -1.135597 3.097809 0.402452
											}
										}
									}
								}
								JOINT LeftHandMiddle1
								{
									OFFSET 11.335861 0.000000 0.000000
									CHANNELS 3 Xrotation Yrotation Zrotation
									JOINT LeftHandMiddle2
									{
										OFFSET 3.410492 0.000000 0.000000
										CHANNELS 3 Xrotation Yrotation Zrotation
										JOINT LeftHandMiddle3
										{
											OFFSET 3.312172 0.000000 0.000000
											CHANNELS 3 Xrotation Yrotation Zrotation
											End Site
											{
												OFFSET -1.150200 3.080154 0.400270
											}
										}
									}
								}
								JOINT LeftHandRing1
								{
									OFFSET 11.514786 -0.013176 -3.003090
									CHANNELS 3 Xrotation Yrotation Zrotation
									JOINT LeftHandRing2
									{
										OFFSET 3.053307 0.000000 0.000000
										CHANNELS 3 Xrotation Yrotation Zrotation
										JOINT LeftHandRing3
										{
											OFFSET 3.295807 0.000000 0.000000
											CHANNELS 3 Xrotation Yrotation Zrotation
											End Site
											{
												OFFSET -1.281006 3.013344 0.375733
											}
										}
									}
								}
								JOINT LeftHandPinky1
								{
									OFFSET 10.518692 -0.960396 -5.730441
									CHANNELS 3 Xrotation Yrotation Zrotation
									JOINT LeftHandPinky2
									{
										OFFSET 2.861649 0.000000 0.000000
										CHANNELS 3 Xrotation Yrotation Zrotation
										JOINT LeftHandPinky3
										{
											OFFSET 2.863380 0.000000 0.000000
											CHANNELS 3 Xrotation Yrotation Zrotation
											End Site
											{
												OFFSET -0.843597 2.711159 0.369971
											}
										}
									}
								}
							}
							JOINT LSleeve
							{
								OFFSET 6.676277 -0.344902 -1.011730
								CHANNELS 3 Xrotation Yrotation Zrotation
								End Site
								{
									OFFSET 0.000000 14.885353 0.000000
								}
							}
						}
					}
				}
				JOINT RightShoulder
				{
					OFFSET -6.197800 13.665199 -4.064700
					CHANNELS 3 Xrotation Yrotation Zrotation
					JOINT RightArm
					{
						OFFSET -7.778100 -0.187103 -1.709300
						CHANNELS 3 Xrotation Yrotation Zrotation
						JOINT RightForeArm
						{
							OFFSET -22.049376 0.000000 0.000000
							CHANNELS 3 Xrotation Yrotation Zrotation
							JOINT RightHand
							{
								OFFSET -23.009392 0.000000 0.000000
								CHANNELS 3 Xrotation Yrotation Zrotation
								JOINT RightHandThumb1
								{
									OFFSET -3.507191 -2.063065 3.133727
									CHANNELS 3 Xrotation Yrotation Zrotation
									JOINT RightHandThumb2
									{
										OFFSET -3.101337 -1.790558 1.790558
										CHANNELS 3 Xrotation Yrotation Zrotation
										JOINT RightHandThumb3
										{
											OFFSET -3.058640 -1.765907 1.765906
											CHANNELS 3 Xrotation Yrotation Zrotation
											End Site
											{
												OFFSET 0.415260 3.926476 -0.049563
											}
										}
									}
								}
								JOINT RightHandIndex1
								{
									OFFSET -11.334419 -0.901459 3.706815
									CHANNELS 3 Xrotation Yrotation Zrotation
									JOINT RightHandIndex2
									{
										OFFSET -3.283112 0.000000 0.000000
										CHANNELS 3 Xrotation Yrotation Zrotation
										JOINT RightHandIndex3
										{
											OFFSET -3.323853 0.000000 0.000000
											CHANNELS 3 Xrotation Yrotation Zrotation
											End Site
											{
												OFFSET 1.135597 3.097809 0.402452
											}
										}
									}
								}
								JOINT RightHandMiddle1
								{
									OFFSET -11.335861 0.000000 0.000000
									CHANNELS 3 Xrotation Yrotation Zrotation
									JOINT RightHandMiddle2
									{
										OFFSET -3.410492 0.000000 0.000000
										CHANNELS 3 Xrotation Yrotation Zrotation
										JOINT RightHandMiddle3
										{
											OFFSET -3.312172 0.000000 0.000000
											CHANNELS 3 Xrotation Yrotation Zrotation
											End Site
											{
												OFFSET 1.150200 3.080154 0.400270
											}
										}
									}
								}
								JOINT RightHandRing1
								{
									OFFSET -11.514786 -0.013176 -3.003090
									CHANNELS 3 Xrotation Yrotation Zrotation
									JOINT RightHandRing2
									{
										OFFSET -3.053307 0.000000 0.000000
										CHANNELS 3 Xrotation Yrotation Zrotation
										JOINT RightHandRing3
										{
											OFFSET -3.295807 0.000000 0.000000
											CHANNELS 3 Xrotation Yrotation Zrotation
											End Site
											{
												OFFSET 1.281006 3.013344 0.375733
											}
										}
									}
								}
								JOINT RightHandPinky1
								{
									OFFSET -10.518692 -0.960396 -5.730441
									CHANNELS 3 Xrotation Yrotation Zrotation
									JOINT RightHandPinky2
									{
										OFFSET -2.861649 0.000000 0.000000
										CHANNELS 3 Xrotation Yrotation Zrotation
										JOINT RightHandPinky3
										{
											OFFSET -2.863380 0.000000 0.000000
											CHANNELS 3 Xrotation Yrotation Zrotation
											End Site
											{
												OFFSET 0.843597 2.711159 0.369971
											}
										}
									}
								}
							}
							JOINT RSleeve
							{
								OFFSET -6.676277 -0.344902 -1.011730
								CHANNELS 3 Xrotation Yrotation Zrotation
								End Site
								{
									OFFSET 0.000000 14.885353 0.000000
								}
							}
						}
					}
				}
				JOINT Backpack
				{
					OFFSET 0.000000 -2.471497 36.677502
					CHANNELS 3 Xrotation Yrotation Zrotation
					End Site
					{
						OFFSET 0.000000 20.427315 0.000000
					}
				}
				JOINT Hood
				{
					OFFSET 0.000000 18.754097 -10.431000
					CHANNELS 3 Xrotation Yrotation Zrotation
					JOINT Hood1
					{
						OFFSET 0.000000 -5.011002 -7.685901
						CHANNELS 3 Xrotation Yrotation Zrotation
						End Site
						{
							OFFSET 0.000000 9.175140 0.000000
						}
					}
				}
				JOINT LHoodieString
				{
					OFFSET 5.250500 16.397697 3.089900
					CHANNELS 3 Xrotation Yrotation Zrotation
					JOINT LHoodieString1
					{
						OFFSET 0.257700 -6.364304 3.694600
						CHANNELS 3 Xrotation Yrotation Zrotation
						JOINT LHoodieString2
						{
							OFFSET 0.000000 -9.643799 2.679100
							CHANNELS 3 Xrotation Yrotation Zrotation
							End Site
							{
								OFFSET 0.000000 10.009018 0.000000
							}
						}
					}
				}
				JOINT RHoodieString
				{
					OFFSET -5.250500 16.397697 3.089900
					CHANNELS 3 Xrotation Yrotation Zrotation
					JOINT RHoodieString1
					{
						OFFSET -0.257700 -6.364304 3.694600
						CHANNELS 3 Xrotation Yrotation Zrotation
						JOINT RHoodieString2
						{
							OFFSET 0.000000 -9.643799 2.679100
							CHANNELS 3 Xrotation Yrotation Zrotation
							End Site
							{
								OFFSET 0.000000 10.009018 0.000000
							}
						}
					}
				}
			}
			JOINT LBackpack_Strap
			{
				OFFSET 15.223200 -7.719803 -6.610900
				CHANNELS 3 Xrotation Yrotation Zrotation
				End Site
				{
					OFFSET 0.000000 16.040596 0.000000
				}
			}
			JOINT RBackpack_Strap
			{
				OFFSET -15.223000 -7.719803 -6.610900
				CHANNELS 3 Xrotation Yrotation Zrotation
				End Site
				{
					OFFSET 0.000000 16.040596 0.000000
				}
			}
		}
	}
	JOINT BoyFacialAnim_Joint
	{
		OFFSET 1.000000 -82.208099 -1.550900
		CHANNELS 3 Xrotation Yrotation Zrotation
		End Site
		{
			OFFSET 0.000000 30.012791 0.000000
		}
	}
}
MOTION
Frames: 5
Frame Time: 0.033333
-0.194477 81.501152 0.654647 -2.259680 4.633287 -0.056587 -0.000000 -0.000001 -0.000000 -12.046865 13.675993 6.634317 20.804560 0.055231 2.563737 -7.167620 -1.984050 -5.416267 0.000000 0.000000 -0.000000 0.000000 0.000000 -0.000000 -0.000000 -0.000001 -0.000000 -9.181925 -14.688788 -1.285234 21.399478 2.494662 -2.274649 -10.170684 -4.786347 0.407574 -0.000000 -0.000001 -0.000000 -0.000000 -0.000001 -0.000000 0.000000 0.000001 -0.000000 3.251966 -2.586231 5.796118 2.832496 -0.413282 -2.081194 2.818824 -0.455802 -2.089818 -0.379159 -0.352995 -1.402487 0.125832 -3.117746 -2.421297 -0.000000 -0.000000 -0.000000 -0.000000 -0.000000 -0.000000 -0.000000 -0.000000 -0.000000 -0.258001 4.267357 -0.012601 28.841959 -45.671361 -46.741471 0.000004 -19.297339 -0.000001 25.803545 -18.539070 22.354919 1.023388 6.043328 8.472413 3.080272 17.459377 0.296949 0.000001 -0.000001 -0.000001 1.954219 6.258262 -21.338373 1.719047 4.556233 -41.325431 -0.000001 0.000000 -0.000000 1.879868 6.116020 -21.078695 2.517780 5.326023 -50.578609 0.000000 -0.000000 0.000000 2.285138 6.323430 -25.474562 1.342735 4.090044 -36.336456 -0.000000 -0.000000 -0.000002 4.445563 9.966048 -28.007667 0.572218 -1.319738 -23.828956 -0.000000 0.000000 0.000001 -0.000003 -0.000001 -0.000001 1.286670 5.153475 11.062710 5.761750 -9.091017 53.199490 0.000100 82.784987 -0.000122 -17.120986 36.208373 -18.541158 26.537377 20.691153 22.275084 11.076804 -14.390017 -17.068641 0.000001 0.000003 -0.000003 0.332179 -2.158519 14.975444 2.071993 -4.955774 45.358364 0.000001 0.000000 -0.000004 0.501353 -2.670604 17.272934 1.855042 -4.732481 42.789609 -0.000001 0.000000 -0.000000 0.842106 -3.421376 22.412841 1.830687 -4.706115 42.493660 -0.000001 -0.000001 0.000002 1.076967 -3.801630 26.442961 0.660353 -2.962404 25.127779 -0.000001 -0.000001 0.000002 -0.000000 -0.000002 0.000000 0.000000 0.000000 0.000000 0.000000 0.000000 0.000000 0.000000 0.000000 0.000000 0.000000 0.000000 0.000000 0.000000 0.000000 0.000000 0.000000 0.000000 0.000000 0.000000 0.000000 0.000000 0.000000 0.000000 0.000000 0.000000 0.000000 0.000000 0.000000 -0.000000 0.000000 0.000000 -0.000000 0.000000 -0.000000 -0.000001 -0.000000 
-0.205080 81.499306 0.663853 -2.244664 4.652942 -0.055501 -0.000000 0.000000 0.000000 -12.066158 13.681820 6.648562 20.811438 0.037697 2.558464 -7.172857 -2.000747 -5.421776 -0.000000 0.000000 -0.000000 -0.000000 0.000000 -0.000000 -0.000000 0.000002 0.000000 -9.192444 -14.736056 -1.276114 21.410568 2.519004 -2.295236 -10.187212 -4.789649 0.404233 0.000000 0.000000 0.000000 0.000000 0.000000 0.000000 -0.000000 0.000000 -0.000000 3.243651 -2.636482 5.711314 2.780952 -0.419443 -2.100718 2.766987 -0.461062 -2.109426 -0.263958 -0.400074 -1.303273 0.183395 -3.254839 -2.204883 -0.000000 0.000000 0.000000 -0.000000 0.000000 0.000000 -0.000000 0.000000 0.000000 -0.262702 4.262427 0.151017 29.138618 -45.388516 -46.691231 0.000001 -19.894852 0.000002 25.848380 -18.312326 22.274111 1.001462 6.028129 8.499609 3.080276 17.459340 0.296969 -0.000000 -0.000002 -0.000005 1.949348 6.253729 -21.297370 1.719774 4.557049 -41.334283 -0.000002 0.000001 -0.000005 1.843722 6.087575 -20.732008 2.516405 5.324869 -50.563600 -0.000000 -0.000000 -0.000001 2.207385 6.269635 -24.743272 1.339853 4.086118 -36.295987 -0.000000 -0.000000 -0.000000 4.261758 9.926652 -26.919102 0.572217 -1.319762 -23.828983 0.000000 0.000001 -0.000000 -0.000001 0.000001 0.000001 1.103096 4.247401 11.146508 5.794210 -7.977452 53.101951 0.000117 82.251529 -0.000131 -17.194366 36.215210 -18.475472 26.537346 20.691158 22.275100 11.076809 -14.390034 -17.068624 0.000004 -0.000000 0.000000 0.332189 -2.158541 14.975472 2.072009 -4.955774 45.358333 -0.000003 -0.000000 0.000002 0.501359 -2.670626 17.272956 1.855018 -4.732467 42.789602 0.000003 0.000001 0.000002 0.842127 -3.421384 22.412849 1.830697 -4.706102 42.493674 -0.000000 -0.000001 0.000007 1.076987 -3.801656 26.442973 0.660354 -2.962395 25.127783 0.000001 -0.000001 0.000002 0.000002 0.000001 -0.000000 -0.000000 -0.000000 -0.000000 -0.000000 -0.000000 -0.000000 -0.000000 -0.000000 -0.000000 -0.000000 -0.000000 -0.000000 -0.000000 -0.000000 -0.000000 -0.000000 0.000000 -0.000000 -0.000000 -0.000000 -0.000000 -0.000000 -0.000000 -0.000000 -0.000000 0.000000 -0.000000 0.000000 0.000000 0.000000 0.000000 0.000000 0.000000 -0.000000 0.000000 0.000000 
-0.213817 81.497849 0.673621 -2.233546 4.662679 -0.046365 -0.000000 0.000000 -0.000000 -12.069466 13.688682 6.647976 20.805721 0.028124 2.558018 -7.174486 -2.011585 -5.429351 -0.000000 0.000000 -0.000000 -0.000000 0.000000 -0.000000 0.000001 0.000001 -0.000000 -9.205840 -14.778142 -1.278744 21.429613 2.553254 -2.313984 -10.206855 -4.795001 0.400092 -0.000000 -0.000001 -0.000000 -0.000000 -0.000001 -0.000000 -0.000001 -0.000000 -0.000000 3.218421 -2.672214 5.641151 2.757673 -0.424342 -2.117902 2.743485 -0.465368 -2.126723 -0.174518 -0.433646 -1.224765 0.232180 -3.348438 -2.022859 -0.000000 0.000000 -0.000000 -0.000000 0.000000 -0.000000 -0.000000 0.000000 -0.000000 -0.265424 4.252078 0.168458 29.515607 -45.047693 -46.490649 -0.000028 -20.506120 0.000003 25.865870 -18.042710 22.158421 0.995360 6.022140 8.504152 3.080268 17.459371 0.296981 -0.000001 0.000002 -0.000002 1.943407 6.248915 -21.243534 1.725099 4.563079 -41.401482 -0.000001 0.000000 -0.000005 1.814439 6.064920 -20.446588 2.518995 5.326983 -50.591423 0.000002 -0.000001 0.000002 2.147089 6.227978 -24.165561 1.338836 4.084744 -36.281883 -0.000001 -0.000000 0.000001 4.119681 9.895582 -26.068880 0.572213 -1.319758 -23.828983 -0.000000 0.000001 0.000002 0.000001 -0.000001 0.000000 0.955985 3.541435 11.141775 5.835867 -7.075819 53.107490 0.000102 81.800688 -0.000111 -17.224765 36.250433 -18.445442 26.537344 20.691167 22.275113 11.076818 -14.390020 -17.068638 0.000002 0.000001 -0.000002 0.332188 -2.158517 14.975466 2.071992 -4.955770 45.358337 -0.000000 -0.000002 -0.000000 0.501372 -2.670598 17.272963 1.855028 -4.732478 42.789612 0.000000 0.000000 -0.000000 0.842135 -3.421391 22.412844 1.830682 -4.706099 42.493653 0.000001 -0.000000 0.000002 1.076986 -3.801636 26.442963 0.660372 -2.962380 25.127822 0.000002 -0.000000 -0.000002 -0.000000 -0.000000 -0.000001 0.000000 0.000000 -0.000000 0.000000 0.000000 -0.000000 0.000000 0.000000 -0.000000 0.000000 0.000000 -0.000000 0.000000 0.000000 -0.000000 0.000000 0.000000 0.000000 0.000000 0.000000 -0.000000 0.000000 0.000000 -0.000000 0.000000 0.000000 0.000000 0.000000 0.000000 -0.000000 0.000000 0.000000 -0.000000 -0.000000 0.000000 -0.000000 
-0.220765 81.496887 0.683442 -2.226651 4.659485 -0.035659 0.000000 0.000000 -0.000000 -12.061956 13.694369 6.640965 20.795073 0.033450 2.562169 -7.176349 -2.020448 -5.440674 0.000000 -0.000000 -0.000000 0.000000 -0.000000 -0.000000 -0.000001 -0.000000 0.000001 -9.215576 -14.793790 -1.284845 21.447001 2.576874 -2.322561 -10.224269 -4.800419 0.394630 -0.000000 0.000001 0.000000 -0.000000 0.000001 0.000000 -0.000000 -0.000001 -0.000000 3.183235 -2.694446 5.592839 2.753649 -0.427801 -2.132023 2.739316 -0.468501 -2.140956 -0.105883 -0.453900 -1.161668 0.281749 -3.385402 -1.906043 0.000000 -0.000000 -0.000000 0.000000 -0.000000 -0.000000 0.000000 -0.000000 -0.000000 -0.267300 4.243416 0.112357 29.878864 -44.719718 -46.254850 -0.000001 -21.034923 -0.000003 25.867214 -17.785726 22.036630 1.009493 6.028468 8.480090 3.080277 17.459359 0.296977 -0.000001 0.000001 -0.000001 1.939776 6.246484 -21.207894 1.732105 4.571012 -41.489653 -0.000000 0.000000 -0.000004 1.796707 6.051802 -20.269298 2.523452 5.330663 -50.639825 0.000001 -0.000001 0.000004 2.110707 6.203401 -23.809362 1.339209 4.085252 -36.287026 0.000000 0.000001 -0.000004 4.033283 9.877161 -25.545795 0.572206 -1.319736 -23.828988 0.000002 0.000000 -0.000000 -0.000000 -0.000001 -0.000002 0.865732 3.036915 11.109689 5.849434 -6.398046 53.137079 0.000004 81.467498 -0.000006 -17.230102 36.269862 -18.445202 26.537389 20.691163 22.275100 11.076800 -14.389995 -17.068629 0.000001 0.000001 -0.000001 0.332194 -2.158537 14.975456 2.071999 -4.955772 45.358340 0.000001 -0.000000 0.000002 0.501376 -2.670595 17.272961 1.855037 -4.732471 42.789585 0.000001 0.000001 -0.000005 0.842133 -3.421378 22.412863 1.830671 -4.706108 42.493643 0.000002 0.000001 0.000006 1.076978 -3.801641 26.442982 0.660332 -2.962396 25.127795 0.000002 -0.000003 -0.000004 -0.000001 -0.000003 0.000000 0.000000 -0.000000 -0.000000 0.000000 -0.000000 -0.000000 0.000000 -0.000000 -0.000000 0.000000 -0.000000 -0.000000 0.000000 -0.000000 0.000000 0.000000 -0.000000 -0.000000 0.000000 -0.000000 -0.000000 0.000000 -0.000000 0.000000 0.000000 -0.000000 -0.000000 0.000000 0.000000 -0.000000 0.000000 0.000000 -0.000000 0.000000 0.000000 -0.000000 
-0.226453 81.496552 0.693787 -2.223393 4.647946 -0.031811 -0.000000 -0.000000 -0.000000 -12.051390 13.699307 6.639898 20.787447 0.043813 2.568310 -7.181769 -2.025393 -5.453770 -0.000000 -0.000000 -0.000000 -0.000000 -0.000000 -0.000000 -0.000000 -0.000001 -0.000000 -9.213911 -14.785237 -1.284295 21.452782 2.582445 -2.319315 -10.235772 -4.802829 0.387787 -0.000000 -0.000001 0.000000 -0.000000 -0.000001 0.000000 0.000001 0.000000 -0.000000 3.149277 -2.709305 5.567248 2.752863 -0.430181 -2.142952 2.738420 -0.470689 -2.151970 -0.045656 -0.465777 -1.108546 0.340324 -3.381232 -1.857208 0.000000 0.000000 0.000000 0.000000 0.000000 0.000000 0.000000 0.000000 0.000000 -0.269330 4.243250 0.041262 30.152184 -44.470050 -46.074270 0.000001 -21.394155 -0.000011 25.859827 -17.587819 21.934483 1.049267 6.050161 8.419036 3.080274 17.459384 0.296947 0.000001 0.000002 -0.000004 1.942250 6.249477 -21.225066 1.737338 4.576888 -41.555089 -0.000000 -0.000000 -0.000004 1.795626 6.052323 -20.251712 2.527430 5.333896 -50.682548 -0.000000 -0.000001 0.000000 2.105431 6.201092 -23.749068 1.340333 4.086810 -36.302913 0.000000 0.000000 -0.000004 4.017964 9.875681 -25.446913 0.572225 -1.319745 -23.828978 0.000000 0.000000 0.000001 0.000000 0.000000 0.000001 0.831703 2.792175 11.079904 5.854274 -6.026063 53.157532 0.000051 81.283008 -0.000054 -17.254368 36.265002 -18.450586 26.537370 20.691141 22.275079 11.076805 -14.390034 -17.068646 -0.000002 -0.000000 0.000001 0.332200 -2.158537 14.975453 2.072002 -4.955755 45.358316 -0.000001 0.000001 0.000000 0.501361 -2.670590 17.272954 1.855044 -4.732475 42.789605 -0.000000 0.000001 0.000002 0.842121 -3.421367 22.412846 1.830668 -4.706150 42.493636 0.000002 0.000001 0.000004 1.076989 -3.801635 26.442968 0.660354 -2.962402 25.127815 0.000000 -0.000002 -0.000000 0.000002 0.000001 -0.000001 -0.000000 -0.000000 -0.000000 -0.000000 -0.000000 -0.000000 -0.000000 -0.000000 -0.000000 -0.000000 -0.000000 -0.000000 -0.000000 -0.000000 -0.000000 0.000000 0.000000 0.000000 -0.000000 -0.000000 -0.000000 -0.000000 -0.000000 -0.000000 0.000000 0.000000 0.000000 -0.000000 0.000000 -0.000000 -0.000000 0.000000 -0.000000 -0.000000 -0.000000 -0.000000 
